<svg width="48" height="48" viewBox="0 0 48 48" fill="none" xmlns="http://www.w3.org/2000/svg">
<path d="M16.7211 1.57874C11.9252 3.2425 7.78915 6.40037 4.92057 10.5885C2.052 14.7766 0.602075 19.7743 0.783766 24.8474C0.965457 29.9204 2.76919 34.8016 5.93002 38.7738C9.09085 42.7459 13.4422 45.5998 18.3449 46.9162C22.3196 47.9419 26.4839 47.9869 30.4799 47.0475C34.0998 46.2344 37.4465 44.4951 40.1924 42C43.0502 39.3238 45.1245 35.9193 46.1924 32.1525C47.3531 28.0563 47.5596 23.7485 46.7961 19.56H24.4761V28.8187H37.4024C37.144 30.2954 36.5904 31.7049 35.7747 32.9626C34.9589 34.2204 33.8978 35.3006 32.6549 36.1387C31.0764 37.1829 29.2971 37.8854 27.4311 38.2012C25.5596 38.5492 23.6401 38.5492 21.7686 38.2012C19.8718 37.8091 18.0775 37.0262 16.4999 35.9025C13.9654 34.1084 12.0624 31.5597 11.0624 28.62C10.0454 25.6252 10.0454 22.3785 11.0624 19.3837C11.7742 17.2846 12.951 15.3733 14.5049 13.7925C16.2831 11.9503 18.5344 10.6335 21.0117 9.98653C23.489 9.33958 26.0967 9.38748 28.5486 10.125C30.464 10.713 32.2155 11.7403 33.6636 13.125C35.1211 11.675 36.5761 10.2212 38.0286 8.76374C38.7786 7.97999 39.5961 7.23374 40.3349 6.43124C38.1245 4.37428 35.5299 2.77371 32.6999 1.72124C27.5462 -0.150045 21.9073 -0.200334 16.7211 1.57874Z" fill="white"/>
<path d="M16.7214 1.57873C21.9071 -0.201552 27.5461 -0.152587 32.7002 1.71748C35.5307 2.7771 38.1241 4.38538 40.3314 6.44998C39.5814 7.25248 38.7902 8.00248 38.0252 8.78248C36.5702 10.235 35.1164 11.6825 33.6639 13.125C32.2158 11.7402 30.4643 10.713 28.5489 10.125C26.0978 9.38489 23.4902 9.33421 21.0122 9.97852C18.5342 10.6228 16.2816 11.9372 14.5014 13.7775C12.9475 15.3582 11.7708 17.2695 11.0589 19.3687L3.28516 13.35C6.06769 7.83209 10.8855 3.61132 16.7214 1.57873Z" fill="#E33629"/>
<path d="M1.22231 19.3125C1.64014 17.2417 2.33383 15.2363 3.28481 13.35L11.0586 19.3837C10.0416 22.3785 10.0416 25.6252 11.0586 28.62C8.46856 30.62 5.87731 32.63 3.28481 34.65C0.904128 29.9112 0.178061 24.5119 1.22231 19.3125Z" fill="#F8BD00"/>
<path d="M24.4763 19.5563H46.7963C47.5598 23.7448 47.3532 28.0525 46.1925 32.1488C45.1247 35.9156 43.0503 39.3201 40.1925 41.9963C37.6838 40.0388 35.1638 38.0963 32.655 36.1388C33.8988 35.2998 34.9604 34.2184 35.7762 32.9593C36.592 31.7002 37.1451 30.2893 37.4025 28.8113H24.4763C24.4725 25.7288 24.4763 22.6425 24.4763 19.5563Z" fill="#587DBD"/>
<path d="M3.28125 34.65C5.87375 32.65 8.465 30.64 11.055 28.62C12.057 31.5607 13.9628 34.1096 16.5 35.9025C18.0825 37.021 19.8807 37.7975 21.78 38.1825C23.6515 38.5305 25.571 38.5305 27.4425 38.1825C29.3085 37.8666 31.0878 37.1641 32.6663 36.12C35.175 38.0775 37.695 40.02 40.2038 41.9775C37.4583 44.474 34.1116 46.2145 30.4912 47.0287C26.4953 47.9681 22.331 47.9231 18.3563 46.8975C15.2126 46.0581 12.2763 44.5785 9.73125 42.5512C7.03748 40.4126 4.83733 37.7174 3.28125 34.65Z" fill="#319F43"/>
</svg>
