<svg width="28" height="37" viewBox="0 0 28 37" fill="none" xmlns="http://www.w3.org/2000/svg">
<path d="M3.57508 36.8657C2.61946 36.8657 1.80168 36.5257 1.12174 35.8458C0.441803 35.1658 0.101256 34.3475 0.100098 33.3907V16.0158C0.100098 15.0602 0.440645 14.2424 1.12174 13.5625C1.80284 12.8825 2.62062 12.542 3.57508 12.5408H5.31256V9.06586C5.31256 6.66234 6.15988 4.61384 7.85451 2.92037C9.54914 1.22689 11.5976 0.379577 14 0.378419C16.4024 0.377261 18.4515 1.22458 20.1472 2.92037C21.843 4.61615 22.6898 6.66465 22.6875 9.06586V12.5408H24.4249C25.3806 12.5408 26.1989 12.8814 26.88 13.5625C27.5611 14.2436 27.9011 15.0614 27.8999 16.0158V33.3907C27.8999 34.3463 27.56 35.1647 26.88 35.8458C26.2001 36.5269 25.3817 36.8668 24.4249 36.8657H3.57508ZM14 28.1782C14.9556 28.1782 15.774 27.8383 16.4551 27.1583C17.1362 26.4784 17.4761 25.66 17.475 24.7033C17.4738 23.7465 17.1339 22.9287 16.4551 22.2499C15.7763 21.5712 14.9579 21.2306 14 21.2283C13.0421 21.226 12.2243 21.5665 11.5467 22.2499C10.8691 22.9333 10.5285 23.7511 10.525 24.7033C10.5216 25.6554 10.8621 26.4738 11.5467 27.1583C12.2312 27.8429 13.049 28.1829 14 28.1782ZM8.78754 12.5408H19.2125V9.06586C19.2125 7.61796 18.7057 6.38723 17.6922 5.3737C16.6786 4.36016 15.4479 3.8534 14 3.8534C12.5521 3.8534 11.3214 4.36016 10.3078 5.3737C9.29431 6.38723 8.78754 7.61796 8.78754 9.06586V12.5408Z" fill="#212529"/>
</svg>
