<svg width="36" height="28" viewBox="0 0 36 28" fill="none" xmlns="http://www.w3.org/2000/svg">
<path d="M4.10047 27.8997C3.14485 27.8997 2.32707 27.5597 1.64713 26.8798C0.967195 26.1998 0.626647 25.3815 0.625488 24.4247V3.57483C0.625488 2.61921 0.966036 1.80143 1.64713 1.1215C2.32823 0.441559 3.14601 0.101012 4.10047 0.0998535H31.9003C32.8559 0.0998535 33.6743 0.440401 34.3554 1.1215C35.0365 1.80259 35.3764 2.62037 35.3753 3.57483V24.4247C35.3753 25.3803 35.0353 26.1987 34.3554 26.8798C33.6754 27.5609 32.8571 27.9008 31.9003 27.8997H4.10047ZM18.0004 15.7373L31.9003 7.04981V3.57483L18.0004 12.2623L4.10047 3.57483V7.04981L18.0004 15.7373Z" fill="#212529"/>
</svg>
